# xmcd
#
# Track frame offsets:
#	150
#	26360
#	45827
#	69617
#	87989
#	111482
#	129632
#	149627
#	163232
#	183715
#	209770
#	228762
#
# Disc length: 3244 seconds
#
# Revision: 1
# Processed by: cddbd v1.5.1PL0 Copyright (c) Steve Scherf et al.
# Submitted via: CDmax 2.0
#
DISCID=b20caa0c
DTITLE=Little Milton Campbell - Guitar Man
DYEAR=2002
DGENRE=Blues
TTITLE0=Blues Tune-up
TTITLE1=Guitar Man
TTITLE2=I could have saved our love
TTITLE3=I wish I could be your lover
TTITLE4=Just one moment
TTITLE5=Mr. and Mrs. Untrue
TTITLE6=My Way
TTITLE7=Still some meat left on this bone
TTITLE8=Take time out to hear me some blues
TTITLE9=Juke Joint is calling me
TTITLE10=Whenever you come around
TTITLE11=You were on the right street
EXTD=
EXTT0=
EXTT1=
EXTT2=
EXTT3=
EXTT4=
EXTT5=
EXTT6=
EXTT7=
EXTT8=
EXTT9=
EXTT10=
EXTT11=
PLAYORDER=
